<mxfile host="app.diagrams.net" agent="Mozilla/5.0 (Windows NT 10.0; Win64; x64) AppleWebKit/537.36 (KHTML, like Gecko) Chrome/131.0.0.0 Safari/537.36 Edg/131.0.0.0" version="24.9.2" pages="2">
  <diagram name="第 1 页" id="h-WATVLo2EIUkXPYDDB6">
    <mxGraphModel>
      <root>
        <mxCell id="0" />
        <mxCell id="1" parent="0" />
      </root>
    </mxGraphModel>
  </diagram>
  <diagram id="YPmZ2OA5JyaN2fc3QNfN" name="抽奖流程">
    <mxGraphModel dx="1908" dy="829" grid="1" gridSize="10" guides="1" tooltips="1" connect="1" arrows="1" fold="1" page="0" pageScale="1" pageWidth="827" pageHeight="1169" math="0" shadow="0">
      <root>
        <mxCell id="0" />
        <mxCell id="1" parent="0" />
        <mxCell id="tOgQPt1uO_VoPih-6Qut-10" style="edgeStyle=orthogonalEdgeStyle;rounded=0;orthogonalLoop=1;jettySize=auto;html=1;exitX=1;exitY=0.3333333333333333;exitDx=0;exitDy=0;exitPerimeter=0;entryX=0;entryY=0.5;entryDx=0;entryDy=0;" edge="1" parent="1" source="tOgQPt1uO_VoPih-6Qut-1" target="tOgQPt1uO_VoPih-6Qut-3">
          <mxGeometry relative="1" as="geometry" />
        </mxCell>
        <mxCell id="tOgQPt1uO_VoPih-6Qut-1" value="Actor" style="shape=umlActor;verticalLabelPosition=bottom;verticalAlign=top;html=1;outlineConnect=0;" vertex="1" parent="1">
          <mxGeometry x="-250" y="280" width="30" height="60" as="geometry" />
        </mxCell>
        <mxCell id="tOgQPt1uO_VoPih-6Qut-2" value="黑名单过滤" style="ellipse;whiteSpace=wrap;html=1;" vertex="1" parent="1">
          <mxGeometry x="-160" y="410" width="120" height="80" as="geometry" />
        </mxCell>
        <mxCell id="tOgQPt1uO_VoPih-6Qut-11" style="edgeStyle=orthogonalEdgeStyle;rounded=0;orthogonalLoop=1;jettySize=auto;html=1;exitX=1;exitY=0.5;exitDx=0;exitDy=0;entryX=0;entryY=0.5;entryDx=0;entryDy=0;" edge="1" parent="1" source="tOgQPt1uO_VoPih-6Qut-3" target="tOgQPt1uO_VoPih-6Qut-9">
          <mxGeometry relative="1" as="geometry" />
        </mxCell>
        <mxCell id="tOgQPt1uO_VoPih-6Qut-12" style="edgeStyle=orthogonalEdgeStyle;rounded=0;orthogonalLoop=1;jettySize=auto;html=1;exitX=0.5;exitY=1;exitDx=0;exitDy=0;entryX=0.5;entryY=0;entryDx=0;entryDy=0;" edge="1" parent="1" source="tOgQPt1uO_VoPih-6Qut-3" target="tOgQPt1uO_VoPih-6Qut-2">
          <mxGeometry relative="1" as="geometry" />
        </mxCell>
        <mxCell id="tOgQPt1uO_VoPih-6Qut-3" value="过滤规则" style="rounded=1;whiteSpace=wrap;html=1;" vertex="1" parent="1">
          <mxGeometry x="-160" y="270" width="120" height="60" as="geometry" />
        </mxCell>
        <mxCell id="tOgQPt1uO_VoPih-6Qut-4" value="白名单" style="ellipse;whiteSpace=wrap;html=1;" vertex="1" parent="1">
          <mxGeometry x="-150" y="520" width="120" height="80" as="geometry" />
        </mxCell>
        <mxCell id="tOgQPt1uO_VoPih-6Qut-5" value="抽奖前过滤规则" style="ellipse;whiteSpace=wrap;html=1;" vertex="1" parent="1">
          <mxGeometry x="-150" y="100" width="120" height="80" as="geometry" />
        </mxCell>
        <mxCell id="tOgQPt1uO_VoPih-6Qut-6" value="抽奖中过滤规则" style="ellipse;whiteSpace=wrap;html=1;" vertex="1" parent="1">
          <mxGeometry x="10" y="100" width="120" height="80" as="geometry" />
        </mxCell>
        <mxCell id="tOgQPt1uO_VoPih-6Qut-7" value="抽奖后过滤规则" style="ellipse;whiteSpace=wrap;html=1;" vertex="1" parent="1">
          <mxGeometry x="160" y="100" width="120" height="80" as="geometry" />
        </mxCell>
        <mxCell id="tOgQPt1uO_VoPih-6Qut-9" value="抽奖计算" style="rounded=1;whiteSpace=wrap;html=1;" vertex="1" parent="1">
          <mxGeometry x="40" y="270" width="120" height="60" as="geometry" />
        </mxCell>
      </root>
    </mxGraphModel>
  </diagram>
</mxfile>
